<svg width="31" height="30" viewBox="0 0 31 30" fill="none" xmlns="http://www.w3.org/2000/svg">
<mask id="mask0_42_29154" style="mask-type:luminance" maskUnits="userSpaceOnUse" x="0" y="0" width="31" height="30">
<path d="M30.5 0H0.5V30H30.5V0Z" fill="white"/>
</mask>
<g mask="url(#mask0_42_29154)">
<path fill-rule="evenodd" clip-rule="evenodd" d="M22.4557 5.18832C22.6444 4.73344 22.7408 4.24569 22.7398 3.75327C22.7401 3.01246 22.5209 2.28818 22.1099 1.67183C21.6989 1.05547 21.1147 0.574703 20.4307 0.290205C19.7467 0.00570796 18.9937 -0.0697614 18.2668 0.0733248C17.54 0.216411 16.8718 0.571638 16.3466 1.09416L15.5006 1.88207L14.6603 1.09674C13.9566 0.393906 13.0025 -0.000605387 12.008 6.97308e-07C11.0134 0.000606782 10.0598 0.396281 9.35698 1.09998C8.65414 1.80368 8.25962 2.75775 8.26022 3.75233C8.26084 4.74689 8.65651 5.70048 9.3602 6.40332L15.1322 12.2606C15.1803 12.3095 15.2376 12.3483 15.3009 12.3747C15.3641 12.4012 15.432 12.4149 15.5006 12.4149C15.5692 12.4149 15.6371 12.4012 15.7003 12.3747C15.7636 12.3483 15.8209 12.3095 15.869 12.2606L21.641 6.40332C21.9902 6.05616 22.2671 5.6432 22.4557 5.18832ZM8.54429 24.8117C8.35568 25.2666 8.25914 25.7543 8.26024 26.2467C8.25991 26.9876 8.47907 27.7119 8.89004 28.3283C9.30103 28.9446 9.8854 29.4254 10.5694 29.7098C11.2534 29.9943 12.0063 30.0698 12.7332 29.9267C13.46 29.7836 14.1282 29.4284 14.6533 28.9059L15.4994 28.118L16.3397 28.9032C17.0434 29.6061 17.9975 30.0006 18.992 30C19.9867 29.9994 20.9402 29.6037 21.6431 28.9001C22.3459 28.1964 22.7404 27.2423 22.7398 26.2478C22.7392 25.2531 22.3435 24.2996 21.6398 23.5967L15.8678 17.7395C15.8198 17.6906 15.7624 17.6517 15.6991 17.6253C15.6359 17.5988 15.568 17.5851 15.4994 17.5851C15.4309 17.5851 15.363 17.5988 15.2997 17.6253C15.2365 17.6517 15.1791 17.6906 15.131 17.7395L9.35905 23.5967C9.00982 23.9439 8.73289 24.3569 8.54429 24.8117ZM26.7467 22.2399C26.2543 22.241 25.7666 22.1443 25.3117 21.9558C24.8569 21.7672 24.4439 21.4902 24.0967 21.141L18.2395 15.3692C18.1906 15.321 18.1517 15.2636 18.1253 15.2004C18.0988 15.1371 18.0851 15.0693 18.0851 15.0006C18.0851 14.9321 18.0988 14.8642 18.1253 14.801C18.1517 14.7377 18.1906 14.6804 18.2395 14.6322L24.0967 8.86029C24.7996 8.1566 25.7531 7.76091 26.7478 7.76031C27.7423 7.75971 28.6964 8.15421 29.4001 8.85705C30.1037 9.55989 30.4994 10.5135 30.5 11.5081C30.5006 12.5026 30.1061 13.4567 29.4032 14.1604L28.618 15.0006L29.4059 15.8468C29.9284 16.3719 30.2836 17.04 30.4267 17.7669C30.5698 18.4938 30.4943 19.2467 30.2098 19.9307C29.9254 20.6147 29.4446 21.1991 28.8283 21.6101C28.2119 22.0211 27.4876 22.2402 26.7467 22.2399ZM5.68832 8.0442C5.23344 7.85559 4.74569 7.75905 4.25327 7.76015C3.51246 7.75982 2.78816 7.97898 2.17183 8.38995C1.55547 8.80094 1.0747 9.38531 0.790205 10.0693C0.505708 10.7533 0.430239 11.5062 0.573325 12.2331C0.716411 12.96 1.07164 13.6281 1.59416 14.1533L2.38207 14.9993L1.59674 15.8396C0.893905 16.5434 0.499395 17.4974 0.500001 18.492C0.500607 19.4865 0.896279 20.4401 1.59998 21.143C2.30368 21.8459 3.25775 22.2404 4.25233 22.2398C5.24689 22.2392 6.20048 21.8435 6.90332 21.1397L12.7606 15.3678C12.8095 15.3197 12.8483 15.2624 12.8747 15.1991C12.9012 15.1358 12.9149 15.068 12.9149 14.9993C12.9149 14.9308 12.9012 14.8629 12.8747 14.7996C12.8483 14.7364 12.8095 14.679 12.7606 14.6309L6.90332 8.85896C6.55616 8.50973 6.1432 8.2328 5.68832 8.0442Z" fill="#5B5BD6"/>
</g>
</svg>
